<?xml version="1.0" standalone="no"?><!DOCTYPE svg PUBLIC "-//W3C//DTD SVG 1.1//EN" "http://www.w3.org/Graphics/SVG/1.1/DTD/svg11.dtd"><svg t="1547223144459" class="icon" style="" viewBox="0 0 1071 1024" version="1.1" xmlns="http://www.w3.org/2000/svg" p-id="7175" xmlns:xlink="http://www.w3.org/1999/xlink" width="33.46875" height="32"><defs><style type="text/css"></style></defs><path d="M757.43056 255.314656l-5.589894-6.055718a123.909304 123.909304 0 0 1 5.589894-167.230979L695.010083 18.210009a56.830583 56.830583 0 0 0-83.382577 0L18.167154 619.589378a59.159705 59.159705 0 0 0 0 85.245874l62.420476 63.81795a117.853586 117.853586 0 0 1 170.025925 0 122.977655 122.977655 0 0 1 0 173.286697l62.420477 63.81795a57.296408 57.296408 0 0 0 83.848401 0l378.71528-386.168471" fill="#E9EBEF" p-id="7176"></path><path d="M587.404634 340.094706l-253.408502 258.532571a28.415292 28.415292 0 0 1-41.458376 0 29.346941 29.346941 0 0 1 0-42.390025l253.408502-258.532571a28.415292 28.415292 0 0 1 41.458376 0 29.346941 29.346941 0 0 1 0 42.390025z m68.942019 186.329781l-193.782972 199.83869a28.881116 28.881116 0 0 1-41.9242 0 29.812765 29.812765 0 0 1 0-42.855849l193.782972-197.043744a27.949467 27.949467 0 0 1 41.9242 0 30.278589 30.278589 0 0 1 0 42.390025z" fill="#B5BCCA" p-id="7177"></path><path d="M651.688409 422.545634a214.279248 214.279248 0 0 0 105.742151 182.137361 207.291881 207.291881 0 0 0 209.155179 0 214.745073 214.745073 0 0 0 0-368.467142 207.291881 207.291881 0 0 0-209.155179 0 214.279248 214.279248 0 0 0-105.742151 186.329781z" fill="#1759CC" p-id="7178"></path><path d="M863.638535 539.001747a120.182709 120.182709 0 0 1-109.468747-70.339492 20.030451 20.030451 0 0 1 10.248138-27.483643 20.9621 20.9621 0 0 1 27.483643 10.248138 78.724332 78.724332 0 0 0 143.939756 0 21.427925 21.427925 0 0 1 27.483643-10.713962 20.9621 20.9621 0 0 1 10.713962 27.483643 120.648533 120.648533 0 0 1-110.400395 70.805316z m-93.164891-139.747335a15.372207 15.372207 0 0 1-7.919015 0 20.030451 20.030451 0 0 1-9.316489-27.483643 120.182709 120.182709 0 0 1 220.334966 0 20.496276 20.496276 0 0 1-10.248138 27.017818 20.030451 20.030451 0 0 1-27.483643-10.248138 79.190157 79.190157 0 0 0-144.871405 0 20.030451 20.030451 0 0 1-19.098802 10.713963z" fill="#E9EBEF" p-id="7179"></path><path d="M750.909017 306.089521m20.962101 0l-0.465825 0q20.9621 0 20.962101 20.9621l0 51.24069q0 20.9621-20.962101 20.962101l0.465825 0q-20.9621 0-20.962101-20.962101l0-51.24069q0-20.9621 20.962101-20.9621Z" fill="#E9EBEF" p-id="7180"></path><path d="M933.978027 437.917841m20.9621 0l-0.465824 0q20.9621 0 20.9621 20.9621l0 51.24069q0 20.9621-20.9621 20.962101l0.465824 0q-20.9621 0-20.9621-20.962101l0-51.24069q0-20.9621 20.9621-20.9621Z" fill="#E9EBEF" p-id="7181"></path></svg>