<?xml version="1.0" standalone="no"?><!DOCTYPE svg PUBLIC "-//W3C//DTD SVG 1.1//EN" "http://www.w3.org/Graphics/SVG/1.1/DTD/svg11.dtd"><svg t="1547223180466" class="icon" style="" viewBox="0 0 1024 1024" version="1.1" xmlns="http://www.w3.org/2000/svg" p-id="7499" xmlns:xlink="http://www.w3.org/1999/xlink" width="32" height="32"><defs><style type="text/css"></style></defs><path d="M740.864715 79.293631a34.456421 34.456421 0 0 1 0.194945 3.606471v905.273018c0 19.494439-16.375329 35.284935-36.552074 35.284935a35.918504 35.918504 0 0 1-36.552073-35.284935V112.093025H365.791706v876.080095c0 19.494439-16.375329 35.284935-36.552073 35.284935a35.918504 35.918504 0 0 1-36.552073-35.284935V82.900102c0-1.218402 0.048736-2.436805 0.194944-3.606471A36.552073 36.552073 0 0 1 329.239633 38.988878h375.267953a36.552073 36.552073 0 0 1 36.357129 40.304753z" fill="#B5BCCA" p-id="7500"></path><path d="M955.49849 815.403653c0 34.066532-39.281295 61.846108-87.773712 61.846108H166.022441C117.724968 877.249761 78.248729 849.567658 78.248729 815.403653V403.047529C78.248729 368.932261 117.530024 341.152685 166.022441 341.152685h701.702337c48.297473 0 87.773712 27.682104 87.773712 61.846108v412.40486z" fill="#E9EBEF" p-id="7501"></path><path d="M482.758341 462.992929m36.552074 0l0 0q36.552073 0 36.552073 36.552074l0 219.31244q0 36.552073-36.552073 36.552073l0 0q-36.552073 0-36.552074-36.552073l0-219.31244q0-36.552073 36.552074-36.552074Z" fill="#1759CC" p-id="7502"></path><path d="M677.702733 462.992929m36.552073 0l0 0q36.552073 0 36.552073 36.552074l0 219.31244q0 36.552073-36.552073 36.552073l0 0q-36.552073 0-36.552073-36.552073l0-219.31244q0-36.552073 36.552073-36.552074Z" fill="#1759CC" p-id="7503"></path><path d="M287.81395 462.992929m36.552073 0l0 0q36.552073 0 36.552074 36.552074l0 219.31244q0 36.552073-36.552074 36.552073l0 0q-36.552073 0-36.552073-36.552073l0-219.31244q0-36.552073 36.552073-36.552074Z" fill="#1759CC" p-id="7504"></path></svg>