<?xml version="1.0" standalone="no"?><!DOCTYPE svg PUBLIC "-//W3C//DTD SVG 1.1//EN" "http://www.w3.org/Graphics/SVG/1.1/DTD/svg11.dtd"><svg t="1547223197918" class="icon" style="" viewBox="0 0 1024 1024" version="1.1" xmlns="http://www.w3.org/2000/svg" p-id="7748" xmlns:xlink="http://www.w3.org/1999/xlink" width="32" height="32"><defs><style type="text/css"></style></defs><path d="M273.8176 719.616c0-20.1216-13.3632-33.536-33.3824-33.536H33.3824c-20.0192 0-33.3824 13.4144-33.3824 33.536s13.312 33.536 33.3824 33.536h204.8c20.0192 0 35.6352-13.4144 35.6352-33.536z m645.5808-35.7376h-171.4176c-20.0704 0-33.3824 13.3632-33.3824 33.4848s13.312 33.536 33.3824 33.536h171.4176c19.968 0 33.3824 13.4144 33.3824 33.536s-13.3632 33.4848-33.3824 33.4848H307.2c-57.856 0-102.4 44.6976-102.4 102.8096s44.544 102.8096 102.4 102.8096h409.6c20.0192 0 33.3824-13.4144 33.3824-33.536 0-20.0704-13.312-33.4848-33.3824-33.4848H307.2c-20.0192 0-33.3824-13.4144-33.3824-33.536s13.312-33.536 33.3824-33.536h614.4c57.856 0 102.4-44.6976 102.4-102.8096s-44.544-102.7584-104.6016-102.7584z" fill="#B5BCCA" p-id="7749"></path><path d="M493.9776 753.152s322.7648-181.0432 322.7648-438.0672C818.9952 140.8 672.0512 0 493.9776 0S171.1616 140.8 171.1616 315.0848c0 263.7312 322.816 438.0672 322.816 438.0672z" fill="#E9EBEF" p-id="7750"></path><path d="M496.128 201.1136c68.5056 0 127.488 59.2896 127.488 128 0 68.7616-58.9824 128-127.488 128a127.1808 127.1808 0 0 1-127.488-128c2.3552-68.7104 59.0336-128 127.488-128z" fill="#1759CC" p-id="7751"></path></svg>