<?xml version="1.0" standalone="no"?><!DOCTYPE svg PUBLIC "-//W3C//DTD SVG 1.1//EN" "http://www.w3.org/Graphics/SVG/1.1/DTD/svg11.dtd"><svg t="1547223273553" class="icon" style="" viewBox="0 0 1070 1024" version="1.1" xmlns="http://www.w3.org/2000/svg" p-id="7982" xmlns:xlink="http://www.w3.org/1999/xlink" width="33.4375" height="32"><defs><style type="text/css"></style></defs><path d="M757.527273 255.906909l-5.957818-6.050909a123.810909 123.810909 0 0 1 5.957818-167.005091L694.923636 19.083636c-23.831273-24.250182-59.578182-24.250182-83.456 0L18.432 620.264727a59.438545 59.438545 0 0 0 0 84.992l62.557091 63.767273c47.709091-48.593455 122.181818-48.593455 169.890909 0a122.554182 122.554182 0 0 1 0 173.009455l62.557091 63.767272c23.877818 24.296727 59.624727 24.296727 83.456 0l378.507636-385.536" fill="#E9EBEF" p-id="7983"></path><path d="M587.636364 340.898909l-253.300364 258.048a28.439273 28.439273 0 0 1-41.751273 0 29.742545 29.742545 0 0 1 0-42.496l253.346909-258.048c11.915636-12.101818 29.789091-12.101818 41.704728 0 11.915636 12.148364 11.915636 33.419636 0 42.496z m68.561454 188.229818l-193.722182 197.352728a28.439273 28.439273 0 0 1-41.751272 0 29.742545 29.742545 0 0 1 0-42.496l193.722181-197.352728c11.915636-12.101818 29.789091-12.101818 41.751273 0a29.742545 29.742545 0 0 1 0 42.496z" fill="#B5BCCA" p-id="7984"></path><path d="M653.218909 422.865455c0 75.915636 39.749818 146.106182 104.261818 184.040727a205.265455 205.265455 0 0 0 208.663273 0 213.271273 213.271273 0 0 0 104.261818-184.040727 213.271273 213.271273 0 0 0-104.261818-184.040728 205.265455 205.265455 0 0 0-208.616727 0 213.271273 213.271273 0 0 0-104.308364 184.040728z" fill="#1759CC" p-id="7985"></path><path d="M903.540364 507.904l-125.207273-127.534545a29.742545 29.742545 0 0 1 0-42.496c11.962182-12.101818 29.835636-12.101818 41.751273 0L945.338182 465.454545a29.742545 29.742545 0 0 1 0 42.496 28.439273 28.439273 0 0 1-41.751273 0z" fill="#E9EBEF" p-id="7986"></path><path d="M945.245091 380.369455l-125.160727 127.534545a28.439273 28.439273 0 0 1-41.704728 0 29.742545 29.742545 0 0 1 0-42.542545l125.160728-127.488c11.915636-12.101818 29.789091-12.101818 41.704727 0a29.742545 29.742545 0 0 1 0 42.496z" fill="#E9EBEF" p-id="7987"></path></svg>