<?xml version="1.0" encoding="UTF-8"?>
<svg width="50px" height="35px" viewBox="0 0 50 35" version="1.1" xmlns="http://www.w3.org/2000/svg" xmlns:xlink="http://www.w3.org/1999/xlink">
    <!-- Generator: Sketch 51.2 (57519) - http://www.bohemiancoding.com/sketch -->
    <title>duoyun</title>
    <desc>Created with Sketch.</desc>
    <defs></defs>
    <g id="Page-1" stroke="none" stroke-width="1" fill="none" fill-rule="evenodd">
        <g id="3-6-航班动态-查询结果-航班详情" transform="translate(-295.000000, -116.000000)" fill="#FFFFFF" fill-rule="nonzero">
            <g id="duoyun" transform="translate(295.000000, 116.000000)">
                <path d="M30.561039,16.7467391 C29.4688312,11.2748188 24.6006494,7.14836957 18.7662338,7.14836957 C12.9318182,7.14836957 8.05909091,11.2748188 6.96688312,16.7467391 C2.98701299,17.8132246 0.0551948052,21.4197464 0.0551948052,25.7066123 C0.0551948052,30.8304348 4.24220779,34.9847826 9.40974026,34.9847826 L28.1168831,34.9847826 C33.2837662,34.9847826 37.4714286,30.8304348 37.4714286,25.7066123 C37.4720779,21.4197464 34.5454545,17.8132246 30.561039,16.7467391 Z M33.9090909,25.3623188 C33.9071989,26.994487 33.2409688,28.5589877 32.0571287,29.7112608 C30.8732886,30.8635339 29.2689341,31.5090729 27.5974026,31.5057065 L9.92987013,31.5057065 C6.44480519,31.5057065 3.61883117,28.7570652 3.61883117,25.3661232 C3.62123984,23.7343949 4.28760868,22.1704793 5.47125214,21.0186358 C6.65489561,19.8667923 8.25878812,19.2214398 9.92987013,19.2246377 C9.92987013,14.4768116 13.8850649,10.6280797 18.761039,10.6280797 C23.637013,10.6280797 27.5922078,14.4768116 27.5922078,19.2246377 C31.0772727,19.2246377 33.9032468,21.973279 33.9032468,25.364221 L33.9090909,25.3623188 Z" id="Shape"></path>
                <path d="M29.5967532,8.56612319 C32.5717626,6.3560217 36.7899887,6.7658023 39.2607318,9.50493274 C41.7314748,12.2440632 41.6151172,16.3817213 38.9941558,18.9843297 C38.6556345,19.3092442 38.2000035,19.4913939 37.7253247,19.4915761 C36.9862891,19.4914755 36.3240276,19.0459196 36.0607006,18.3716516 C35.7973737,17.6973835 35.987647,16.9343785 36.538961,16.4538043 C37.7881091,15.1244617 37.7895757,13.0833631 36.5423393,11.7523101 C35.2951028,10.4212572 33.2128735,10.2417621 31.7461039,11.3388587 C30.9606574,11.8964392 29.8626006,11.7372195 29.2769826,10.9808327 C28.6913645,10.224446 28.8338603,9.14945903 29.5974026,8.56358696 L29.5967532,8.56612319 Z M49.9448052,15.673279 C49.9448052,16.6341744 49.147058,17.4131341 48.162987,17.4131341 L46.3811688,17.4131341 C45.3970978,17.4131341 44.5993506,16.6341744 44.5993506,15.673279 C44.5993506,14.7123836 45.3970978,13.9334239 46.3811688,13.9334239 L48.162987,13.9334239 C48.6355546,13.9334239 49.088767,14.1167295 49.4229227,14.4430157 C49.7570785,14.7693018 49.9448052,15.2118407 49.9448052,15.673279 Z M29.8,0.0634057971 C30.7585917,-0.153257464 31.7155893,0.429786308 31.9376623,1.36576087 L32.3376623,3.05806159 C32.528246,3.98130344 31.9318736,4.88501173 30.9921075,5.09703753 C30.0523413,5.30906333 29.1104063,4.75242106 28.8668831,3.84112319 L28.4662338,2.14628623 C28.3596967,1.69670208 28.4404373,1.22420657 28.6906919,0.832753506 C28.9409465,0.441300441 29.3402132,0.162959099 29.8006494,0.0589673913 L29.8,0.0634057971 Z M44.8701299,3.45117754 C45.6346038,4.0551418 45.7534663,5.14965418 45.1357143,5.89673913 L44.012987,7.24918478 C43.4226879,8.01800618 42.3058709,8.17399682 41.5185065,7.59759964 C40.7311421,7.02120246 40.5713892,5.93068733 41.1616883,5.16186594 C41.1885281,5.12720411 41.2166667,5.09338768 41.2461039,5.06041667 L42.3688312,3.7067029 C42.989147,2.96162102 44.1103599,2.84811065 44.874026,3.45307971 L44.8701299,3.45117754 Z" id="Shape"></path>
            </g>
        </g>
    </g>
</svg>