<?xml version="1.0" encoding="UTF-8"?>
<svg width="50px" height="35px" viewBox="0 0 50 35" version="1.1" xmlns="http://www.w3.org/2000/svg" xmlns:xlink="http://www.w3.org/1999/xlink">
    <!-- Generator: Sketch 51.2 (57519) - http://www.bohemiancoding.com/sketch -->
    <title>wu</title>
    <desc>Created with Sketch.</desc>
    <defs></defs>
    <g id="Page-1" stroke="none" stroke-width="1" fill="none" fill-rule="evenodd">
        <g id="3-6-航班动态-查询结果-航班详情" transform="translate(-30.000000, -116.000000)" fill="#FFFFFF" fill-rule="nonzero">
            <g id="wu" transform="translate(30.000000, 116.000000)">
                <path d="M10.7467532,8.95789272 C10.7467532,9.94498004 11.5445004,10.7451724 12.5285714,10.7451724 C13.5126424,10.7451724 14.3103896,9.94498004 14.3103896,8.95789272 C14.3103896,7.9708054 13.5126424,7.17061303 12.5285714,7.17061303 C11.5445004,7.17061303 10.7467532,7.9708054 10.7467532,8.95789272 Z" id="Shape"></path>
                <path d="M23.2181818,8.95789272 C23.2181818,9.94498004 24.015929,10.7451724 25,10.7451724 C25.984071,10.7451724 26.7818182,9.94498004 26.7818182,8.95789272 C26.7818182,7.9708054 25.984071,7.17061303 25,7.17061303 C24.015929,7.17061303 23.2181818,7.9708054 23.2181818,8.95789272 Z" id="Shape"></path>
                <path d="M35.6896104,8.95789272 C35.6896104,9.94498004 36.4873576,10.7451724 37.4714286,10.7451724 C38.4554996,10.7451724 39.2532468,9.94498004 39.2532468,8.95789272 C39.2532468,7.9708054 38.4554996,7.17061303 37.4714286,7.17061303 C36.4873576,7.17061303 35.6896104,7.9708054 35.6896104,8.95789272 Z" id="Shape"></path>
                <path d="M3.62012987,16.1063602 C3.62012987,17.0934475 4.41787704,17.8936398 5.40194805,17.8936398 C6.38601906,17.8936398 7.18376623,17.0934475 7.18376623,16.1063602 C7.18376623,15.1192728 6.38601906,14.3190805 5.40194805,14.3190805 C4.41787704,14.3190805 3.62012987,15.1192728 3.62012987,16.1063602 Z" id="Shape"></path>
                <path d="M16.6850649,16.1063602 C16.6850649,16.7448937 17.0246775,17.3349231 17.575974,17.6541898 C18.1272705,17.9734566 18.8064958,17.9734566 19.3577922,17.6541898 C19.9090887,17.3349231 20.2487013,16.7448937 20.2487013,16.1063602 C20.2487013,15.4678266 19.9090887,14.8777973 19.3577922,14.5585305 C18.8064958,14.2392637 18.1272705,14.2392637 17.575974,14.5585305 C17.0246775,14.8777973 16.6850649,15.4678266 16.6850649,16.1063602 Z" id="Shape"></path>
                <path d="M29.7512987,16.1063602 C29.7512987,17.0934475 30.5490459,17.8936398 31.5331169,17.8936398 C32.5171879,17.8936398 33.3149351,17.0934475 33.3149351,16.1063602 C33.3149351,15.1192728 32.5171879,14.3190805 31.5331169,14.3190805 C30.5490459,14.3190805 29.7512987,15.1192728 29.7512987,16.1063602 Z" id="Shape"></path>
                <path d="M42.8162338,16.1063602 C42.8162337,16.7448937 43.1558463,17.3349231 43.7071428,17.6541899 C44.2584393,17.9734567 44.9376646,17.9734567 45.4889611,17.6541899 C46.0402575,17.3349231 46.3798702,16.7448937 46.3798701,16.1063602 C46.3798702,15.4678266 46.0402575,14.8777972 45.4889611,14.5585304 C44.9376646,14.2392637 44.2584393,14.2392637 43.7071428,14.5585304 C43.1558463,14.8777972 42.8162337,15.4678266 42.8162338,16.1063602 Z" id="Shape"></path>
                <path d="M3.62012987,1.80942529 C3.62012987,2.79651261 4.41787704,3.59670498 5.40194805,3.59670498 C6.38601906,3.59670498 7.18376623,2.79651261 7.18376623,1.80942529 C7.18376623,0.822337969 6.38601906,0.0221455939 5.40194805,0.0221455939 C4.41787704,0.0221455939 3.62012987,0.822337969 3.62012987,1.80942529 Z" id="Shape"></path>
                <path d="M16.6850649,1.80942529 C16.6850649,2.44795884 17.0246775,3.03798818 17.575974,3.35725497 C18.1272705,3.67652175 18.8064958,3.67652175 19.3577922,3.35725497 C19.9090887,3.03798818 20.2487013,2.44795884 20.2487013,1.80942529 C20.2487013,1.17089174 19.9090887,0.58086239 19.3577922,0.261595606 C18.8064958,-0.0576711774 18.1272705,-0.0576711774 17.575974,0.261595606 C17.0246775,0.58086239 16.6850649,1.17089174 16.6850649,1.80942529 Z" id="Shape"></path>
                <path d="M29.7512987,1.80942529 C29.7512987,2.79651261 30.5490459,3.59670498 31.5331169,3.59670498 C32.5171879,3.59670498 33.3149351,2.79651261 33.3149351,1.80942529 C33.3149351,0.822337969 32.5171879,0.0221455939 31.5331169,0.0221455939 C30.5490459,0.0221455939 29.7512987,0.822337969 29.7512987,1.80942529 Z" id="Shape"></path>
                <path d="M42.8162338,1.80942529 C42.8162337,2.44795885 43.1558463,3.0379882 43.7071428,3.35725499 C44.2584393,3.67652179 44.9376646,3.67652179 45.4889611,3.35725499 C46.0402575,3.0379882 46.3798702,2.44795885 46.3798701,1.80942529 C46.3798702,1.17089173 46.0402575,0.580862371 45.4889611,0.26159558 C44.9376646,-0.0576712103 44.2584393,-0.0576712103 43.7071428,0.26159558 C43.1558463,0.580862371 42.8162337,1.17089173 42.8162338,1.80942529 Z" id="Shape"></path>
                <path d="M1.83896104,24.2528736 L48.161039,24.2528736 C49.1316753,24.2714624 49.9088436,25.0660387 49.9088436,26.0398276 C49.9088436,27.0136165 49.1316753,27.8081927 48.161039,27.8267816 L1.83896104,27.8267816 C0.868324731,27.8081927 0.0911563747,27.0136165 0.0911563747,26.0398276 C0.0911563747,25.0660387 0.868324731,24.2714624 1.83896104,24.2528736 Z M1.83896104,31.403295 L48.161039,31.403295 C48.8056125,31.3909506 49.40656,31.7288165 49.7324518,32.2867778 C50.0583436,32.8447391 50.0583436,33.535759 49.7324518,34.0937203 C49.40656,34.6516815 48.8056125,34.9895474 48.161039,34.9772031 L1.83896104,34.9772031 C1.19438752,34.9895474 0.593439966,34.6516815 0.267548179,34.0937203 C-0.0583436071,33.535759 -0.0583436071,32.8447391 0.267548179,32.2867778 C0.593439966,31.7288165 1.19438752,31.3909506 1.83896104,31.403295 Z" id="Shape"></path>
            </g>
        </g>
    </g>
</svg>